<?xml version="1.0" encoding="UTF-8" standalone="no"?>
<!-- Created with Inkscape (http://www.inkscape.org/) -->

<svg
   width="168.80417mm"
   height="168.80417mm"
   viewBox="0 0 168.80417 168.80417"
   version="1.1"
   id="svg5"
   inkscape:version="1.1 (c68e22c387, 2021-05-23)"
   sodipodi:docname="arrow.svg"
   xmlns:inkscape="http://www.inkscape.org/namespaces/inkscape"
   xmlns:sodipodi="http://sodipodi.sourceforge.net/DTD/sodipodi-0.dtd"
   xmlns="http://www.w3.org/2000/svg"
   xmlns:svg="http://www.w3.org/2000/svg">
  <sodipodi:namedview
     id="namedview7"
     pagecolor="#ffffff"
     bordercolor="#666666"
     borderopacity="1.0"
     inkscape:pageshadow="2"
     inkscape:pageopacity="0.0"
     inkscape:pagecheckerboard="0"
     inkscape:document-units="mm"
     showgrid="false"
     inkscape:zoom="0.54047838"
     inkscape:cx="145.2417"
     inkscape:cy="499.55745"
     inkscape:window-width="1284"
     inkscape:window-height="1040"
     inkscape:window-x="596"
     inkscape:window-y="68"
     inkscape:window-maximized="0"
     inkscape:current-layer="layer1" />
  <defs
     id="defs2" />
  <g
     inkscape:label="Layer 1"
     inkscape:groupmode="layer"
     id="layer1"
     transform="translate(-10.437822,139.0855)">
    <g
       id="g14993"
       transform="translate(-7.6153846,-177.92308)">
      <path
         style="fill:#e6f8e6;stroke-width:0.264583"
         d="m 65.184091,170.88617 c -45.32632,-45.09462 -47.130884,-46.9112 -47.130884,-47.44462 0,-0.23576 0.187097,-0.61577 0.415774,-0.84444 l 0.415774,-0.41578 H 39.238773 59.592791 V 80.925233 39.669131 l 0.415774,-0.415774 0.415775,-0.415774 h 42.03095 42.03096 l 0.41577,0.415774 0.41577,0.415774 v 41.256102 41.256097 h 20.35402 20.35402 l 0.41577,0.41578 c 0.22868,0.22867 0.41578,0.61521 0.41578,0.85896 0,0.62306 -83.61225,84.18568 -84.23568,84.18568 -0.30153,0 -14.850399,-14.28382 -37.437609,-36.75558 z"
         id="path15011" />
      <path
         style="fill:#cff3cf;stroke-width:0.264583"
         d="m 60.156917,165.63154 -41.9015,-41.73041 0.09733,-0.66146 0.09733,-0.66146 20.6375,-0.13229 20.637501,-0.13229 0.132292,-41.539588 0.132291,-41.539584 h 42.465629 42.46562 l 0.1323,41.539584 0.13229,41.539588 20.6375,0.13229 20.63749,0.13229 0.09,0.63725 0.09,0.63725 -41.76161,41.76223 c -28.0807,28.08112 -41.93506,41.75974 -42.29108,41.75462 -0.34499,-0.005 -15.129313,-14.54782 -42.430988,-41.73802 z"
         id="path15009" />
      <path
         style="fill:#a6e9a6;stroke-width:0.264583"
         d="M 65.713273,170.88597 C 25.550001,130.92926 18.31779,123.6897 18.31779,123.44228 c 0,-0.0906 0.187098,-0.35191 0.415774,-0.58059 l 0.415775,-0.41577 H 39.503357 59.857375 V 81.189816 39.933714 l 0.415774,-0.415774 0.415774,-0.415774 h 41.766367 41.76637 l 0.41578,0.415774 0.41577,0.415774 v 41.256102 41.256104 h 20.35402 20.35402 l 0.41525,0.41525 c 0.29192,0.29192 0.34167,0.5473 0.16751,0.85989 -0.34873,0.62595 -83.44564,83.65611 -83.72335,83.65611 -0.12514,0 -16.733468,-16.42104 -36.907387,-36.4912 z"
         id="path15007" />
      <path
         style="fill:#9be59b;stroke-width:0.264583"
         d="M 65.184091,170.35724 C 18.011553,123.42613 18.512187,123.93182 18.627824,123.33127 l 0.09406,-0.48848 20.404408,-0.0678 20.404406,-0.0678 0.294801,-0.35521 c 0.213259,-0.25696 0.313325,-11.76443 0.361778,-41.604107 l 0.06698,-41.248891 h 42.201043 42.20105 l 0.067,41.248891 c 0.0485,29.839677 0.14852,41.347147 0.36178,41.604107 l 0.2948,0.35521 20.40441,0.0678 20.4044,0.0678 0.0965,0.50143 c 0.12325,0.64009 -82.90102,83.76837 -83.66356,83.76837 -0.30151,0 -14.850797,-14.28414 -37.437602,-36.75535 z"
         id="path15005" />
      <path
         style="fill:#61d961;stroke-width:0.264583"
         d="M 60.402969,165.3566 C 28.260221,133.35132 18.523305,123.51064 18.65602,123.1648 l 0.173083,-0.45105 20.580281,-0.0678 20.580282,-0.0678 0.132292,-41.539584 0.132292,-41.539584 h 42.20104 42.20105 l 0.13229,41.539584 0.13229,41.539584 20.58028,0.0678 20.58028,0.0678 0.16208,0.42237 c 0.16533,0.43085 -83.07763,83.98546 -83.65566,83.96885 -0.1457,-0.004 -19.128914,-18.79095 -42.184931,-41.74837 z"
         id="path15003" />
      <path
         style="fill:#56d556;stroke-width:0.264583"
         d="M 60.571781,165.23497 C 37.608609,142.35583 18.826499,123.50045 18.833759,123.33412 c 0.02585,-0.59237 1.081702,-0.62362 21.069214,-0.62362 H 60.121958 V 81.4544 40.198297 l 0.415774,-0.415773 0.415774,-0.415774 h 41.501784 41.50179 l 0.41577,0.415774 0.41578,0.415773 V 81.4544 122.7105 h 20.21898 c 19.99203,0 21.05602,0.0315 21.05602,0.62394 0,0.37553 -83.11106,83.51636 -83.47636,83.50626 -0.14535,-0.004 -19.052319,-18.7266 -42.015489,-41.60573 z"
         id="path15001" />
      <path
         style="fill:#2dcc2d;stroke-width:0.264583"
         d="M 60.571951,165.23458 C 37.608874,142.35566 18.826764,123.48771 18.833929,123.30581 l 0.01303,-0.33073 h 20.452292 c 15.554561,0 20.528326,-0.076 20.769792,-0.3175 0.244237,-0.24423 0.3175,-9.86014 0.3175,-41.671871 V 39.631333 h 42.068747 42.06875 v 41.354376 c 0,31.811731 0.0733,41.427641 0.3175,41.671871 0.24147,0.24147 5.21523,0.3175 20.7698,0.3175 h 20.45229 v 0.33105 c 0,0.39435 -83.09342,83.54533 -83.47636,83.53418 -0.14535,-0.004 -19.05224,-18.72681 -42.015317,-41.60573 z"
         id="path14999" />
      <path
         style="fill:#1ac71a;stroke-width:0.264583"
         d="M 60.704195,165.1024 C 37.813852,142.29618 19.091273,123.48845 19.098464,123.30744 l 0.01308,-0.32911 20.571355,-0.0678 20.571355,-0.0678 0.132291,-41.539581 0.132292,-41.539584 h 41.936453 41.93646 l 0.13229,41.539584 0.1323,41.539581 20.57135,0.0678 20.57135,0.0678 v 0.32942 c 0,0.39322 -82.82978,83.27905 -83.21177,83.26808 -0.14535,-0.004 -18.992728,-18.66722 -41.883071,-41.47343 z"
         id="path14997" />
      <path
         style="fill:#00c200;stroke-width:0.264583"
         d="m 60.783416,164.91338 -41.804168,-41.64724 20.518439,-0.0132 c 15.591062,-0.0101 20.594683,-0.0895 20.835938,-0.33073 0.244236,-0.24424 0.3175,-9.86014 0.3175,-41.67188 V 39.895924 h 41.804165 41.80417 v 41.374897 41.374899 l 0.35586,0.29533 c 0.25358,0.21045 6.22353,0.31483 20.77014,0.36313 l 20.41428,0.0678 -41.60608,41.59433 -41.60608,41.59433 z"
         id="path14995" />
    </g>
  </g>
</svg>
